<svg xmlns="http://www.w3.org/2000/svg" xmlns:xlink="http://www.w3.org/1999/xlink" version="1.1" width="1000" height="1000" viewBox="0 0 1000 1000" xml:space="preserve">
<desc>Created with Fabric.js 3.5.0</desc>
<defs>
</defs>
<rect x="0" y="0" width="100%" height="100%" fill="rgba(255,255,255,0)"/>
<g transform="matrix(0.5887 0 0 0.5887 502.3573 502.3573)" id="177363">
<g style="" vector-effect="non-scaling-stroke">
		<g transform="matrix(0.1333 0 0 -0.1333 -767.9755 -767.9198)">
<path style="stroke: none; stroke-width: 1; stroke-dasharray: none; stroke-linecap: butt; stroke-dashoffset: 0; stroke-linejoin: miter; stroke-miterlimit: 4; is-custom-font: none; font-file-url: none; fill: rgb(92,233,60); fill-rule: nonzero; opacity: 0.5;" transform=" translate(-640.2634, -12159.3191)" d="M 550 12465 c -105 -35 -200 -141 -222 -248 c -43 -206 163 -412 369 -369 c 155 32 275 190 260 339 c -11 105 -90 213 -190 262 c -61 29 -155 36 -217 16 z" stroke-linecap="round"/>
</g>
		<g transform="matrix(0.1333 0 0 -0.1333 -597.2893 -767.9159)">
<path style="stroke: none; stroke-width: 1; stroke-dasharray: none; stroke-linecap: butt; stroke-dashoffset: 0; stroke-linejoin: miter; stroke-miterlimit: 4; is-custom-font: none; font-file-url: none; fill: rgb(92,233,60); fill-rule: nonzero; opacity: 0.5;" transform=" translate(-1920.4097, -12159.2893)" d="M 1830 12465 c -151 -50 -253 -216 -222 -362 c 25 -119 136 -230 254 -255 c 194 -41 395 142 375 339 c -11 105 -90 213 -190 262 c -61 29 -155 36 -217 16 z" stroke-linecap="round"/>
</g>
		<g transform="matrix(0.1333 0 0 -0.1333 -426.6422 -767.9198)">
<path style="stroke: none; stroke-width: 1; stroke-dasharray: none; stroke-linecap: butt; stroke-dashoffset: 0; stroke-linejoin: miter; stroke-miterlimit: 4; is-custom-font: none; font-file-url: none; fill: rgb(92,233,60); fill-rule: nonzero; opacity: 0.5;" transform=" translate(-3200.2634, -12159.3191)" d="M 3110 12465 c -105 -35 -200 -141 -222 -248 c -43 -206 163 -412 369 -369 c 155 32 275 190 260 339 c -11 105 -90 213 -190 262 c -61 29 -155 36 -217 16 z" stroke-linecap="round"/>
</g>
		<g transform="matrix(0.1333 0 0 -0.1333 -255.9755 -767.9198)">
<path style="stroke: none; stroke-width: 1; stroke-dasharray: none; stroke-linecap: butt; stroke-dashoffset: 0; stroke-linejoin: miter; stroke-miterlimit: 4; is-custom-font: none; font-file-url: none; fill: rgb(92,233,60); fill-rule: nonzero; opacity: 0.5;" transform=" translate(-4480.2634, -12159.3191)" d="M 4390 12465 c -105 -35 -200 -141 -222 -248 c -43 -206 163 -412 369 -369 c 155 32 275 190 260 339 c -11 105 -90 213 -190 262 c -61 29 -155 36 -217 16 z" stroke-linecap="round"/>
</g>
		<g transform="matrix(0.1333 0 0 -0.1333 -85.3089 -767.9198)">
<path style="stroke: none; stroke-width: 1; stroke-dasharray: none; stroke-linecap: butt; stroke-dashoffset: 0; stroke-linejoin: miter; stroke-miterlimit: 4; is-custom-font: none; font-file-url: none; fill: rgb(92,233,60); fill-rule: nonzero; opacity: 0.5;" transform=" translate(-5760.2634, -12159.3191)" d="M 5670 12465 c -105 -35 -200 -141 -222 -248 c -43 -206 163 -412 369 -369 c 155 32 275 190 260 339 c -11 105 -90 213 -190 262 c -61 29 -155 36 -217 16 z" stroke-linecap="round"/>
</g>
		<g transform="matrix(0.1333 0 0 -0.1333 85.3578 -767.9198)">
<path style="stroke: none; stroke-width: 1; stroke-dasharray: none; stroke-linecap: butt; stroke-dashoffset: 0; stroke-linejoin: miter; stroke-miterlimit: 4; is-custom-font: none; font-file-url: none; fill: rgb(92,233,60); fill-rule: nonzero; opacity: 0.5;" transform=" translate(-7040.2634, -12159.3191)" d="M 6950 12465 c -105 -35 -200 -141 -222 -248 c -43 -206 163 -412 369 -369 c 155 32 275 190 260 339 c -11 105 -90 213 -190 262 c -61 29 -155 36 -217 16 z" stroke-linecap="round"/>
</g>
		<g transform="matrix(0.1333 0 0 -0.1333 256.0245 -767.9198)">
<path style="stroke: none; stroke-width: 1; stroke-dasharray: none; stroke-linecap: butt; stroke-dashoffset: 0; stroke-linejoin: miter; stroke-miterlimit: 4; is-custom-font: none; font-file-url: none; fill: rgb(92,233,60); fill-rule: nonzero; opacity: 0.5;" transform=" translate(-8320.2634, -12159.3191)" d="M 8230 12465 c -105 -35 -200 -141 -222 -248 c -43 -206 163 -412 369 -369 c 155 32 275 190 260 339 c -11 105 -90 213 -190 262 c -61 29 -155 36 -217 16 z" stroke-linecap="round"/>
</g>
		<g transform="matrix(0.1333 0 0 -0.1333 426.6911 -767.9198)">
<path style="stroke: none; stroke-width: 1; stroke-dasharray: none; stroke-linecap: butt; stroke-dashoffset: 0; stroke-linejoin: miter; stroke-miterlimit: 4; is-custom-font: none; font-file-url: none; fill: rgb(92,233,60); fill-rule: nonzero; opacity: 0.5;" transform=" translate(-9600.2634, -12159.3191)" d="M 9510 12465 c -105 -35 -200 -141 -222 -248 c -43 -206 163 -412 369 -369 c 155 32 275 190 260 339 c -11 105 -90 213 -190 262 c -61 29 -155 36 -217 16 z" stroke-linecap="round"/>
</g>
		<g transform="matrix(0.1333 0 0 -0.1333 597.2733 -768.0052)">
<path style="stroke: none; stroke-width: 1; stroke-dasharray: none; stroke-linecap: butt; stroke-dashoffset: 0; stroke-linejoin: miter; stroke-miterlimit: 4; is-custom-font: none; font-file-url: none; fill: rgb(92,233,60); fill-rule: nonzero; opacity: 0.5;" transform=" translate(-10879.6289, -12159.9592)" d="M 10790 12465 c -105 -35 -200 -141 -222 -248 c -25 -117 32 -244 142 -319 c 107 -74 229 -75 337 -3 c 177 118 201 338 53 485 c -85 86 -207 119 -310 85 z" stroke-linecap="round"/>
</g>
		<g transform="matrix(0.1333 0 0 -0.1333 767.94 -768.0052)">
<path style="stroke: none; stroke-width: 1; stroke-dasharray: none; stroke-linecap: butt; stroke-dashoffset: 0; stroke-linejoin: miter; stroke-miterlimit: 4; is-custom-font: none; font-file-url: none; fill: rgb(92,233,60); fill-rule: nonzero; opacity: 0.5;" transform=" translate(-12159.6289, -12159.9592)" d="M 12070 12465 c -105 -35 -200 -141 -222 -248 c -25 -117 32 -244 142 -319 c 107 -74 229 -75 337 -3 c 177 118 201 338 53 485 c -85 86 -207 119 -310 85 z" stroke-linecap="round"/>
</g>
		<g transform="matrix(0.1333 0 0 -0.1333 -767.9755 -597.2531)">
<path style="stroke: none; stroke-width: 1; stroke-dasharray: none; stroke-linecap: butt; stroke-dashoffset: 0; stroke-linejoin: miter; stroke-miterlimit: 4; is-custom-font: none; font-file-url: none; fill: rgb(92,233,60); fill-rule: nonzero; opacity: 0.5;" transform=" translate(-640.2634, -10879.3191)" d="M 550 11185 c -105 -35 -200 -141 -222 -248 c -43 -206 163 -412 369 -369 c 155 32 275 190 260 339 c -11 105 -90 213 -190 262 c -61 29 -155 36 -217 16 z" stroke-linecap="round"/>
</g>
		<g transform="matrix(0.1333 0 0 -0.1333 -597.2893 -597.2492)">
<path style="stroke: none; stroke-width: 1; stroke-dasharray: none; stroke-linecap: butt; stroke-dashoffset: 0; stroke-linejoin: miter; stroke-miterlimit: 4; is-custom-font: none; font-file-url: none; fill: rgb(92,233,60); fill-rule: nonzero; opacity: 0.5;" transform=" translate(-1920.4097, -10879.2893)" d="M 1830 11185 c -151 -50 -253 -216 -222 -362 c 25 -119 136 -230 254 -255 c 194 -41 395 142 375 339 c -11 105 -90 213 -190 262 c -61 29 -155 36 -217 16 z" stroke-linecap="round"/>
</g>
		<g transform="matrix(0.1333 0 0 -0.1333 -426.6422 -597.2531)">
<path style="stroke: none; stroke-width: 1; stroke-dasharray: none; stroke-linecap: butt; stroke-dashoffset: 0; stroke-linejoin: miter; stroke-miterlimit: 4; is-custom-font: none; font-file-url: none; fill: rgb(92,233,60); fill-rule: nonzero; opacity: 0.5;" transform=" translate(-3200.2634, -10879.3191)" d="M 3110 11185 c -105 -35 -200 -141 -222 -248 c -43 -206 163 -412 369 -369 c 155 32 275 190 260 339 c -11 105 -90 213 -190 262 c -61 29 -155 36 -217 16 z" stroke-linecap="round"/>
</g>
		<g transform="matrix(0.1333 0 0 -0.1333 -255.9755 -597.2531)">
<path style="stroke: none; stroke-width: 1; stroke-dasharray: none; stroke-linecap: butt; stroke-dashoffset: 0; stroke-linejoin: miter; stroke-miterlimit: 4; is-custom-font: none; font-file-url: none; fill: rgb(92,233,60); fill-rule: nonzero; opacity: 0.5;" transform=" translate(-4480.2634, -10879.3191)" d="M 4390 11185 c -105 -35 -200 -141 -222 -248 c -43 -206 163 -412 369 -369 c 155 32 275 190 260 339 c -11 105 -90 213 -190 262 c -61 29 -155 36 -217 16 z" stroke-linecap="round"/>
</g>
		<g transform="matrix(0.1333 0 0 -0.1333 -85.3089 -597.2531)">
<path style="stroke: none; stroke-width: 1; stroke-dasharray: none; stroke-linecap: butt; stroke-dashoffset: 0; stroke-linejoin: miter; stroke-miterlimit: 4; is-custom-font: none; font-file-url: none; fill: rgb(92,233,60); fill-rule: nonzero; opacity: 0.5;" transform=" translate(-5760.2634, -10879.3191)" d="M 5670 11185 c -105 -35 -200 -141 -222 -248 c -43 -206 163 -412 369 -369 c 155 32 275 190 260 339 c -11 105 -90 213 -190 262 c -61 29 -155 36 -217 16 z" stroke-linecap="round"/>
</g>
		<g transform="matrix(0.1333 0 0 -0.1333 85.3578 -597.2531)">
<path style="stroke: none; stroke-width: 1; stroke-dasharray: none; stroke-linecap: butt; stroke-dashoffset: 0; stroke-linejoin: miter; stroke-miterlimit: 4; is-custom-font: none; font-file-url: none; fill: rgb(92,233,60); fill-rule: nonzero; opacity: 0.5;" transform=" translate(-7040.2634, -10879.3191)" d="M 6950 11185 c -105 -35 -200 -141 -222 -248 c -43 -206 163 -412 369 -369 c 155 32 275 190 260 339 c -11 105 -90 213 -190 262 c -61 29 -155 36 -217 16 z" stroke-linecap="round"/>
</g>
		<g transform="matrix(0.1333 0 0 -0.1333 256.0245 -597.2531)">
<path style="stroke: none; stroke-width: 1; stroke-dasharray: none; stroke-linecap: butt; stroke-dashoffset: 0; stroke-linejoin: miter; stroke-miterlimit: 4; is-custom-font: none; font-file-url: none; fill: rgb(92,233,60); fill-rule: nonzero; opacity: 0.5;" transform=" translate(-8320.2634, -10879.3191)" d="M 8230 11185 c -105 -35 -200 -141 -222 -248 c -43 -206 163 -412 369 -369 c 155 32 275 190 260 339 c -11 105 -90 213 -190 262 c -61 29 -155 36 -217 16 z" stroke-linecap="round"/>
</g>
		<g transform="matrix(0.1333 0 0 -0.1333 426.6911 -597.2531)">
<path style="stroke: none; stroke-width: 1; stroke-dasharray: none; stroke-linecap: butt; stroke-dashoffset: 0; stroke-linejoin: miter; stroke-miterlimit: 4; is-custom-font: none; font-file-url: none; fill: rgb(92,233,60); fill-rule: nonzero; opacity: 0.5;" transform=" translate(-9600.2634, -10879.3191)" d="M 9510 11185 c -105 -35 -200 -141 -222 -248 c -43 -206 163 -412 369 -369 c 155 32 275 190 260 339 c -11 105 -90 213 -190 262 c -61 29 -155 36 -217 16 z" stroke-linecap="round"/>
</g>
		<g transform="matrix(0.1333 0 0 -0.1333 597.2733 -597.3385)">
<path style="stroke: none; stroke-width: 1; stroke-dasharray: none; stroke-linecap: butt; stroke-dashoffset: 0; stroke-linejoin: miter; stroke-miterlimit: 4; is-custom-font: none; font-file-url: none; fill: rgb(92,233,60); fill-rule: nonzero; opacity: 0.5;" transform=" translate(-10879.6289, -10879.9592)" d="M 10790 11185 c -105 -35 -200 -141 -222 -248 c -25 -117 32 -244 142 -319 c 107 -74 229 -75 337 -3 c 177 118 201 338 53 485 c -85 86 -207 119 -310 85 z" stroke-linecap="round"/>
</g>
		<g transform="matrix(0.1333 0 0 -0.1333 767.94 -597.3385)">
<path style="stroke: none; stroke-width: 1; stroke-dasharray: none; stroke-linecap: butt; stroke-dashoffset: 0; stroke-linejoin: miter; stroke-miterlimit: 4; is-custom-font: none; font-file-url: none; fill: rgb(92,233,60); fill-rule: nonzero; opacity: 0.5;" transform=" translate(-12159.6289, -10879.9592)" d="M 12070 11185 c -105 -35 -200 -141 -222 -248 c -25 -117 32 -244 142 -319 c 107 -74 229 -75 337 -3 c 177 118 201 338 53 485 c -85 86 -207 119 -310 85 z" stroke-linecap="round"/>
</g>
		<g transform="matrix(0.1333 0 0 -0.1333 -767.9755 -426.5864)">
<path style="stroke: none; stroke-width: 1; stroke-dasharray: none; stroke-linecap: butt; stroke-dashoffset: 0; stroke-linejoin: miter; stroke-miterlimit: 4; is-custom-font: none; font-file-url: none; fill: rgb(92,233,60); fill-rule: nonzero; opacity: 0.5;" transform=" translate(-640.2634, -9599.3191)" d="M 550 9905 c -105 -35 -200 -141 -222 -248 c -43 -206 163 -412 369 -369 c 155 32 275 190 260 339 c -11 105 -90 213 -190 262 c -61 29 -155 36 -217 16 z" stroke-linecap="round"/>
</g>
		<g transform="matrix(0.1333 0 0 -0.1333 -597.3089 -426.5864)">
<path style="stroke: none; stroke-width: 1; stroke-dasharray: none; stroke-linecap: butt; stroke-dashoffset: 0; stroke-linejoin: miter; stroke-miterlimit: 4; is-custom-font: none; font-file-url: none; fill: rgb(92,233,60); fill-rule: nonzero; opacity: 0.5;" transform=" translate(-1920.2634, -9599.3191)" d="M 1830 9905 c -105 -35 -200 -141 -222 -248 c -43 -206 163 -412 369 -369 c 155 32 275 190 260 339 c -11 105 -90 213 -190 262 c -61 29 -155 36 -217 16 z" stroke-linecap="round"/>
</g>
		<g transform="matrix(0.1333 0 0 -0.1333 -426.6422 -426.5864)">
<path style="stroke: none; stroke-width: 1; stroke-dasharray: none; stroke-linecap: butt; stroke-dashoffset: 0; stroke-linejoin: miter; stroke-miterlimit: 4; is-custom-font: none; font-file-url: none; fill: rgb(92,233,60); fill-rule: nonzero; opacity: 0.5;" transform=" translate(-3200.2634, -9599.3191)" d="M 3110 9905 c -105 -35 -200 -141 -222 -248 c -43 -206 163 -412 369 -369 c 155 32 275 190 260 339 c -11 105 -90 213 -190 262 c -61 29 -155 36 -217 16 z" stroke-linecap="round"/>
</g>
		<g transform="matrix(0.1333 0 0 -0.1333 -255.9755 -426.5864)">
<path style="stroke: none; stroke-width: 1; stroke-dasharray: none; stroke-linecap: butt; stroke-dashoffset: 0; stroke-linejoin: miter; stroke-miterlimit: 4; is-custom-font: none; font-file-url: none; fill: rgb(92,233,60); fill-rule: nonzero; opacity: 0.5;" transform=" translate(-4480.2634, -9599.3191)" d="M 4390 9905 c -105 -35 -200 -141 -222 -248 c -43 -206 163 -412 369 -369 c 155 32 275 190 260 339 c -11 105 -90 213 -190 262 c -61 29 -155 36 -217 16 z" stroke-linecap="round"/>
</g>
		<g transform="matrix(0.1333 0 0 -0.1333 -85.3089 -426.5864)">
<path style="stroke: none; stroke-width: 1; stroke-dasharray: none; stroke-linecap: butt; stroke-dashoffset: 0; stroke-linejoin: miter; stroke-miterlimit: 4; is-custom-font: none; font-file-url: none; fill: rgb(92,233,60); fill-rule: nonzero; opacity: 0.5;" transform=" translate(-5760.2634, -9599.3191)" d="M 5670 9905 c -105 -35 -200 -141 -222 -248 c -43 -206 163 -412 369 -369 c 155 32 275 190 260 339 c -11 105 -90 213 -190 262 c -61 29 -155 36 -217 16 z" stroke-linecap="round"/>
</g>
		<g transform="matrix(0.1333 0 0 -0.1333 85.3578 -426.5864)">
<path style="stroke: none; stroke-width: 1; stroke-dasharray: none; stroke-linecap: butt; stroke-dashoffset: 0; stroke-linejoin: miter; stroke-miterlimit: 4; is-custom-font: none; font-file-url: none; fill: rgb(92,233,60); fill-rule: nonzero; opacity: 0.5;" transform=" translate(-7040.2634, -9599.3191)" d="M 6950 9905 c -105 -35 -200 -141 -222 -248 c -43 -206 163 -412 369 -369 c 155 32 275 190 260 339 c -11 105 -90 213 -190 262 c -61 29 -155 36 -217 16 z" stroke-linecap="round"/>
</g>
		<g transform="matrix(0.1333 0 0 -0.1333 256.0245 -426.5864)">
<path style="stroke: none; stroke-width: 1; stroke-dasharray: none; stroke-linecap: butt; stroke-dashoffset: 0; stroke-linejoin: miter; stroke-miterlimit: 4; is-custom-font: none; font-file-url: none; fill: rgb(92,233,60); fill-rule: nonzero; opacity: 0.5;" transform=" translate(-8320.2634, -9599.3191)" d="M 8230 9905 c -105 -35 -200 -141 -222 -248 c -43 -206 163 -412 369 -369 c 155 32 275 190 260 339 c -11 105 -90 213 -190 262 c -61 29 -155 36 -217 16 z" stroke-linecap="round"/>
</g>
		<g transform="matrix(0.1333 0 0 -0.1333 426.6911 -426.5864)">
<path style="stroke: none; stroke-width: 1; stroke-dasharray: none; stroke-linecap: butt; stroke-dashoffset: 0; stroke-linejoin: miter; stroke-miterlimit: 4; is-custom-font: none; font-file-url: none; fill: rgb(92,233,60); fill-rule: nonzero; opacity: 0.5;" transform=" translate(-9600.2634, -9599.3191)" d="M 9510 9905 c -105 -35 -200 -141 -222 -248 c -43 -206 163 -412 369 -369 c 155 32 275 190 260 339 c -11 105 -90 213 -190 262 c -61 29 -155 36 -217 16 z" stroke-linecap="round"/>
</g>
		<g transform="matrix(0.1333 0 0 -0.1333 597.3578 -426.5864)">
<path style="stroke: none; stroke-width: 1; stroke-dasharray: none; stroke-linecap: butt; stroke-dashoffset: 0; stroke-linejoin: miter; stroke-miterlimit: 4; is-custom-font: none; font-file-url: none; fill: rgb(92,233,60); fill-rule: nonzero; opacity: 0.5;" transform=" translate(-10880.2634, -9599.3191)" d="M 10790 9905 c -105 -35 -200 -141 -222 -248 c -43 -206 163 -412 369 -369 c 155 32 275 190 260 339 c -11 105 -90 213 -190 262 c -61 29 -155 36 -217 16 z" stroke-linecap="round"/>
</g>
		<g transform="matrix(0.1333 0 0 -0.1333 768.0245 -426.5864)">
<path style="stroke: none; stroke-width: 1; stroke-dasharray: none; stroke-linecap: butt; stroke-dashoffset: 0; stroke-linejoin: miter; stroke-miterlimit: 4; is-custom-font: none; font-file-url: none; fill: rgb(92,233,60); fill-rule: nonzero; opacity: 0.5;" transform=" translate(-12160.2634, -9599.3191)" d="M 12070 9905 c -105 -35 -200 -141 -222 -248 c -43 -206 163 -412 369 -369 c 155 32 275 190 260 339 c -11 105 -90 213 -190 262 c -61 29 -155 36 -217 16 z" stroke-linecap="round"/>
</g>
		<g transform="matrix(0.1333 0 0 -0.1333 -767.9755 -255.9198)">
<path style="stroke: none; stroke-width: 1; stroke-dasharray: none; stroke-linecap: butt; stroke-dashoffset: 0; stroke-linejoin: miter; stroke-miterlimit: 4; is-custom-font: none; font-file-url: none; fill: rgb(92,233,60); fill-rule: nonzero; opacity: 0.5;" transform=" translate(-640.2634, -8319.3191)" d="M 550 8625 c -105 -35 -200 -141 -222 -248 c -43 -206 163 -412 369 -369 c 155 32 275 190 260 339 c -11 105 -90 213 -190 262 c -61 29 -155 36 -217 16 z" stroke-linecap="round"/>
</g>
		<g transform="matrix(0.1333 0 0 -0.1333 -597.3089 -255.9198)">
<path style="stroke: none; stroke-width: 1; stroke-dasharray: none; stroke-linecap: butt; stroke-dashoffset: 0; stroke-linejoin: miter; stroke-miterlimit: 4; is-custom-font: none; font-file-url: none; fill: rgb(92,233,60); fill-rule: nonzero; opacity: 0.5;" transform=" translate(-1920.2634, -8319.3191)" d="M 1830 8625 c -105 -35 -200 -141 -222 -248 c -43 -206 163 -412 369 -369 c 155 32 275 190 260 339 c -11 105 -90 213 -190 262 c -61 29 -155 36 -217 16 z" stroke-linecap="round"/>
</g>
		<g transform="matrix(0.1333 0 0 -0.1333 -426.6422 -255.9198)">
<path style="stroke: none; stroke-width: 1; stroke-dasharray: none; stroke-linecap: butt; stroke-dashoffset: 0; stroke-linejoin: miter; stroke-miterlimit: 4; is-custom-font: none; font-file-url: none; fill: rgb(92,233,60); fill-rule: nonzero; opacity: 0.5;" transform=" translate(-3200.2634, -8319.3191)" d="M 3110 8625 c -105 -35 -200 -141 -222 -248 c -43 -206 163 -412 369 -369 c 155 32 275 190 260 339 c -11 105 -90 213 -190 262 c -61 29 -155 36 -217 16 z" stroke-linecap="round"/>
</g>
		<g transform="matrix(0.1333 0 0 -0.1333 -255.9755 -255.9198)">
<path style="stroke: none; stroke-width: 1; stroke-dasharray: none; stroke-linecap: butt; stroke-dashoffset: 0; stroke-linejoin: miter; stroke-miterlimit: 4; is-custom-font: none; font-file-url: none; fill: rgb(92,233,60); fill-rule: nonzero; opacity: 0.5;" transform=" translate(-4480.2634, -8319.3191)" d="M 4390 8625 c -105 -35 -200 -141 -222 -248 c -43 -206 163 -412 369 -369 c 155 32 275 190 260 339 c -11 105 -90 213 -190 262 c -61 29 -155 36 -217 16 z" stroke-linecap="round"/>
</g>
		<g transform="matrix(0.1333 0 0 -0.1333 -85.3089 -255.9198)">
<path style="stroke: none; stroke-width: 1; stroke-dasharray: none; stroke-linecap: butt; stroke-dashoffset: 0; stroke-linejoin: miter; stroke-miterlimit: 4; is-custom-font: none; font-file-url: none; fill: rgb(92,233,60); fill-rule: nonzero; opacity: 0.5;" transform=" translate(-5760.2634, -8319.3191)" d="M 5670 8625 c -105 -35 -200 -141 -222 -248 c -43 -206 163 -412 369 -369 c 155 32 275 190 260 339 c -11 105 -90 213 -190 262 c -61 29 -155 36 -217 16 z" stroke-linecap="round"/>
</g>
		<g transform="matrix(0.1333 0 0 -0.1333 85.3578 -255.9198)">
<path style="stroke: none; stroke-width: 1; stroke-dasharray: none; stroke-linecap: butt; stroke-dashoffset: 0; stroke-linejoin: miter; stroke-miterlimit: 4; is-custom-font: none; font-file-url: none; fill: rgb(92,233,60); fill-rule: nonzero; opacity: 0.5;" transform=" translate(-7040.2634, -8319.3191)" d="M 6950 8625 c -105 -35 -200 -141 -222 -248 c -43 -206 163 -412 369 -369 c 155 32 275 190 260 339 c -11 105 -90 213 -190 262 c -61 29 -155 36 -217 16 z" stroke-linecap="round"/>
</g>
		<g transform="matrix(0.1333 0 0 -0.1333 256.0245 -255.9198)">
<path style="stroke: none; stroke-width: 1; stroke-dasharray: none; stroke-linecap: butt; stroke-dashoffset: 0; stroke-linejoin: miter; stroke-miterlimit: 4; is-custom-font: none; font-file-url: none; fill: rgb(92,233,60); fill-rule: nonzero; opacity: 0.5;" transform=" translate(-8320.2634, -8319.3191)" d="M 8230 8625 c -105 -35 -200 -141 -222 -248 c -43 -206 163 -412 369 -369 c 155 32 275 190 260 339 c -11 105 -90 213 -190 262 c -61 29 -155 36 -217 16 z" stroke-linecap="round"/>
</g>
		<g transform="matrix(0.1333 0 0 -0.1333 426.6911 -255.9198)">
<path style="stroke: none; stroke-width: 1; stroke-dasharray: none; stroke-linecap: butt; stroke-dashoffset: 0; stroke-linejoin: miter; stroke-miterlimit: 4; is-custom-font: none; font-file-url: none; fill: rgb(92,233,60); fill-rule: nonzero; opacity: 0.5;" transform=" translate(-9600.2634, -8319.3191)" d="M 9510 8625 c -105 -35 -200 -141 -222 -248 c -43 -206 163 -412 369 -369 c 155 32 275 190 260 339 c -11 105 -90 213 -190 262 c -61 29 -155 36 -217 16 z" stroke-linecap="round"/>
</g>
		<g transform="matrix(0.1333 0 0 -0.1333 597.3578 -255.9198)">
<path style="stroke: none; stroke-width: 1; stroke-dasharray: none; stroke-linecap: butt; stroke-dashoffset: 0; stroke-linejoin: miter; stroke-miterlimit: 4; is-custom-font: none; font-file-url: none; fill: rgb(92,233,60); fill-rule: nonzero; opacity: 0.5;" transform=" translate(-10880.2634, -8319.3191)" d="M 10790 8625 c -105 -35 -200 -141 -222 -248 c -43 -206 163 -412 369 -369 c 155 32 275 190 260 339 c -11 105 -90 213 -190 262 c -61 29 -155 36 -217 16 z" stroke-linecap="round"/>
</g>
		<g transform="matrix(0.1333 0 0 -0.1333 768.0245 -255.9198)">
<path style="stroke: none; stroke-width: 1; stroke-dasharray: none; stroke-linecap: butt; stroke-dashoffset: 0; stroke-linejoin: miter; stroke-miterlimit: 4; is-custom-font: none; font-file-url: none; fill: rgb(92,233,60); fill-rule: nonzero; opacity: 0.5;" transform=" translate(-12160.2634, -8319.3191)" d="M 12070 8625 c -105 -35 -200 -141 -222 -248 c -43 -206 163 -412 369 -369 c 155 32 275 190 260 339 c -11 105 -90 213 -190 262 c -61 29 -155 36 -217 16 z" stroke-linecap="round"/>
</g>
		<g transform="matrix(0.1333 0 0 -0.1333 -767.9755 -85.2531)">
<path style="stroke: none; stroke-width: 1; stroke-dasharray: none; stroke-linecap: butt; stroke-dashoffset: 0; stroke-linejoin: miter; stroke-miterlimit: 4; is-custom-font: none; font-file-url: none; fill: rgb(92,233,60); fill-rule: nonzero; opacity: 0.5;" transform=" translate(-640.2634, -7039.3191)" d="M 550 7345 c -105 -35 -200 -141 -222 -248 c -43 -206 163 -412 369 -369 c 155 32 275 190 260 339 c -11 105 -90 213 -190 262 c -61 29 -155 36 -217 16 z" stroke-linecap="round"/>
</g>
		<g transform="matrix(0.1333 0 0 -0.1333 -597.3089 -85.2531)">
<path style="stroke: none; stroke-width: 1; stroke-dasharray: none; stroke-linecap: butt; stroke-dashoffset: 0; stroke-linejoin: miter; stroke-miterlimit: 4; is-custom-font: none; font-file-url: none; fill: rgb(92,233,60); fill-rule: nonzero; opacity: 0.5;" transform=" translate(-1920.2634, -7039.3191)" d="M 1830 7345 c -105 -35 -200 -141 -222 -248 c -43 -206 163 -412 369 -369 c 155 32 275 190 260 339 c -11 105 -90 213 -190 262 c -61 29 -155 36 -217 16 z" stroke-linecap="round"/>
</g>
		<g transform="matrix(0.1333 0 0 -0.1333 -426.6422 -85.2531)">
<path style="stroke: none; stroke-width: 1; stroke-dasharray: none; stroke-linecap: butt; stroke-dashoffset: 0; stroke-linejoin: miter; stroke-miterlimit: 4; is-custom-font: none; font-file-url: none; fill: rgb(92,233,60); fill-rule: nonzero; opacity: 0.5;" transform=" translate(-3200.2634, -7039.3191)" d="M 3110 7345 c -105 -35 -200 -141 -222 -248 c -43 -206 163 -412 369 -369 c 155 32 275 190 260 339 c -11 105 -90 213 -190 262 c -61 29 -155 36 -217 16 z" stroke-linecap="round"/>
</g>
		<g transform="matrix(0.1333 0 0 -0.1333 -255.9755 -85.2531)">
<path style="stroke: none; stroke-width: 1; stroke-dasharray: none; stroke-linecap: butt; stroke-dashoffset: 0; stroke-linejoin: miter; stroke-miterlimit: 4; is-custom-font: none; font-file-url: none; fill: rgb(92,233,60); fill-rule: nonzero; opacity: 0.5;" transform=" translate(-4480.2634, -7039.3191)" d="M 4390 7345 c -105 -35 -200 -141 -222 -248 c -43 -206 163 -412 369 -369 c 155 32 275 190 260 339 c -11 105 -90 213 -190 262 c -61 29 -155 36 -217 16 z" stroke-linecap="round"/>
</g>
		<g transform="matrix(0.1333 0 0 -0.1333 -85.3089 -85.2531)">
<path style="stroke: none; stroke-width: 1; stroke-dasharray: none; stroke-linecap: butt; stroke-dashoffset: 0; stroke-linejoin: miter; stroke-miterlimit: 4; is-custom-font: none; font-file-url: none; fill: rgb(92,233,60); fill-rule: nonzero; opacity: 0.5;" transform=" translate(-5760.2634, -7039.3191)" d="M 5670 7345 c -105 -35 -200 -141 -222 -248 c -43 -206 163 -412 369 -369 c 155 32 275 190 260 339 c -11 105 -90 213 -190 262 c -61 29 -155 36 -217 16 z" stroke-linecap="round"/>
</g>
		<g transform="matrix(0.1333 0 0 -0.1333 85.3578 -85.2531)">
<path style="stroke: none; stroke-width: 1; stroke-dasharray: none; stroke-linecap: butt; stroke-dashoffset: 0; stroke-linejoin: miter; stroke-miterlimit: 4; is-custom-font: none; font-file-url: none; fill: rgb(92,233,60); fill-rule: nonzero; opacity: 0.5;" transform=" translate(-7040.2634, -7039.3191)" d="M 6950 7345 c -105 -35 -200 -141 -222 -248 c -43 -206 163 -412 369 -369 c 155 32 275 190 260 339 c -11 105 -90 213 -190 262 c -61 29 -155 36 -217 16 z" stroke-linecap="round"/>
</g>
		<g transform="matrix(0.1333 0 0 -0.1333 256.0245 -85.2531)">
<path style="stroke: none; stroke-width: 1; stroke-dasharray: none; stroke-linecap: butt; stroke-dashoffset: 0; stroke-linejoin: miter; stroke-miterlimit: 4; is-custom-font: none; font-file-url: none; fill: rgb(92,233,60); fill-rule: nonzero; opacity: 0.5;" transform=" translate(-8320.2634, -7039.3191)" d="M 8230 7345 c -105 -35 -200 -141 -222 -248 c -43 -206 163 -412 369 -369 c 155 32 275 190 260 339 c -11 105 -90 213 -190 262 c -61 29 -155 36 -217 16 z" stroke-linecap="round"/>
</g>
		<g transform="matrix(0.1333 0 0 -0.1333 426.6911 -85.2531)">
<path style="stroke: none; stroke-width: 1; stroke-dasharray: none; stroke-linecap: butt; stroke-dashoffset: 0; stroke-linejoin: miter; stroke-miterlimit: 4; is-custom-font: none; font-file-url: none; fill: rgb(92,233,60); fill-rule: nonzero; opacity: 0.5;" transform=" translate(-9600.2634, -7039.3191)" d="M 9510 7345 c -105 -35 -200 -141 -222 -248 c -43 -206 163 -412 369 -369 c 155 32 275 190 260 339 c -11 105 -90 213 -190 262 c -61 29 -155 36 -217 16 z" stroke-linecap="round"/>
</g>
		<g transform="matrix(0.1333 0 0 -0.1333 597.3578 -85.2531)">
<path style="stroke: none; stroke-width: 1; stroke-dasharray: none; stroke-linecap: butt; stroke-dashoffset: 0; stroke-linejoin: miter; stroke-miterlimit: 4; is-custom-font: none; font-file-url: none; fill: rgb(92,233,60); fill-rule: nonzero; opacity: 0.5;" transform=" translate(-10880.2634, -7039.3191)" d="M 10790 7345 c -105 -35 -200 -141 -222 -248 c -43 -206 163 -412 369 -369 c 155 32 275 190 260 339 c -11 105 -90 213 -190 262 c -61 29 -155 36 -217 16 z" stroke-linecap="round"/>
</g>
		<g transform="matrix(0.1333 0 0 -0.1333 768.0245 -85.2531)">
<path style="stroke: none; stroke-width: 1; stroke-dasharray: none; stroke-linecap: butt; stroke-dashoffset: 0; stroke-linejoin: miter; stroke-miterlimit: 4; is-custom-font: none; font-file-url: none; fill: rgb(92,233,60); fill-rule: nonzero; opacity: 0.5;" transform=" translate(-12160.2634, -7039.3191)" d="M 12070 7345 c -105 -35 -200 -141 -222 -248 c -43 -206 163 -412 369 -369 c 155 32 275 190 260 339 c -11 105 -90 213 -190 262 c -61 29 -155 36 -217 16 z" stroke-linecap="round"/>
</g>
		<g transform="matrix(0.1333 0 0 -0.1333 -767.9755 85.4136)">
<path style="stroke: none; stroke-width: 1; stroke-dasharray: none; stroke-linecap: butt; stroke-dashoffset: 0; stroke-linejoin: miter; stroke-miterlimit: 4; is-custom-font: none; font-file-url: none; fill: rgb(92,233,60); fill-rule: nonzero; opacity: 0.5;" transform=" translate(-640.2634, -5759.3191)" d="M 550 6065 c -105 -35 -200 -141 -222 -248 c -43 -206 163 -412 369 -369 c 155 32 275 190 260 339 c -11 105 -90 213 -190 262 c -61 29 -155 36 -217 16 z" stroke-linecap="round"/>
</g>
		<g transform="matrix(0.1333 0 0 -0.1333 -597.3089 85.4136)">
<path style="stroke: none; stroke-width: 1; stroke-dasharray: none; stroke-linecap: butt; stroke-dashoffset: 0; stroke-linejoin: miter; stroke-miterlimit: 4; is-custom-font: none; font-file-url: none; fill: rgb(92,233,60); fill-rule: nonzero; opacity: 0.5;" transform=" translate(-1920.2634, -5759.3191)" d="M 1830 6065 c -105 -35 -200 -141 -222 -248 c -43 -206 163 -412 369 -369 c 155 32 275 190 260 339 c -11 105 -90 213 -190 262 c -61 29 -155 36 -217 16 z" stroke-linecap="round"/>
</g>
		<g transform="matrix(0.1333 0 0 -0.1333 -426.6422 85.4136)">
<path style="stroke: none; stroke-width: 1; stroke-dasharray: none; stroke-linecap: butt; stroke-dashoffset: 0; stroke-linejoin: miter; stroke-miterlimit: 4; is-custom-font: none; font-file-url: none; fill: rgb(92,233,60); fill-rule: nonzero; opacity: 0.5;" transform=" translate(-3200.2634, -5759.3191)" d="M 3110 6065 c -105 -35 -200 -141 -222 -248 c -43 -206 163 -412 369 -369 c 155 32 275 190 260 339 c -11 105 -90 213 -190 262 c -61 29 -155 36 -217 16 z" stroke-linecap="round"/>
</g>
		<g transform="matrix(0.1333 0 0 -0.1333 -255.9755 85.4136)">
<path style="stroke: none; stroke-width: 1; stroke-dasharray: none; stroke-linecap: butt; stroke-dashoffset: 0; stroke-linejoin: miter; stroke-miterlimit: 4; is-custom-font: none; font-file-url: none; fill: rgb(92,233,60); fill-rule: nonzero; opacity: 0.5;" transform=" translate(-4480.2634, -5759.3191)" d="M 4390 6065 c -105 -35 -200 -141 -222 -248 c -43 -206 163 -412 369 -369 c 155 32 275 190 260 339 c -11 105 -90 213 -190 262 c -61 29 -155 36 -217 16 z" stroke-linecap="round"/>
</g>
		<g transform="matrix(0.1333 0 0 -0.1333 -85.3089 85.4136)">
<path style="stroke: none; stroke-width: 1; stroke-dasharray: none; stroke-linecap: butt; stroke-dashoffset: 0; stroke-linejoin: miter; stroke-miterlimit: 4; is-custom-font: none; font-file-url: none; fill: rgb(92,233,60); fill-rule: nonzero; opacity: 0.5;" transform=" translate(-5760.2634, -5759.3191)" d="M 5670 6065 c -105 -35 -200 -141 -222 -248 c -43 -206 163 -412 369 -369 c 155 32 275 190 260 339 c -11 105 -90 213 -190 262 c -61 29 -155 36 -217 16 z" stroke-linecap="round"/>
</g>
		<g transform="matrix(0.1333 0 0 -0.1333 85.3578 85.4136)">
<path style="stroke: none; stroke-width: 1; stroke-dasharray: none; stroke-linecap: butt; stroke-dashoffset: 0; stroke-linejoin: miter; stroke-miterlimit: 4; is-custom-font: none; font-file-url: none; fill: rgb(92,233,60); fill-rule: nonzero; opacity: 0.5;" transform=" translate(-7040.2634, -5759.3191)" d="M 6950 6065 c -105 -35 -200 -141 -222 -248 c -43 -206 163 -412 369 -369 c 155 32 275 190 260 339 c -11 105 -90 213 -190 262 c -61 29 -155 36 -217 16 z" stroke-linecap="round"/>
</g>
		<g transform="matrix(0.1333 0 0 -0.1333 256.0245 85.4136)">
<path style="stroke: none; stroke-width: 1; stroke-dasharray: none; stroke-linecap: butt; stroke-dashoffset: 0; stroke-linejoin: miter; stroke-miterlimit: 4; is-custom-font: none; font-file-url: none; fill: rgb(92,233,60); fill-rule: nonzero; opacity: 0.5;" transform=" translate(-8320.2634, -5759.3191)" d="M 8230 6065 c -105 -35 -200 -141 -222 -248 c -43 -206 163 -412 369 -369 c 155 32 275 190 260 339 c -11 105 -90 213 -190 262 c -61 29 -155 36 -217 16 z" stroke-linecap="round"/>
</g>
		<g transform="matrix(0.1333 0 0 -0.1333 426.6911 85.4136)">
<path style="stroke: none; stroke-width: 1; stroke-dasharray: none; stroke-linecap: butt; stroke-dashoffset: 0; stroke-linejoin: miter; stroke-miterlimit: 4; is-custom-font: none; font-file-url: none; fill: rgb(92,233,60); fill-rule: nonzero; opacity: 0.5;" transform=" translate(-9600.2634, -5759.3191)" d="M 9510 6065 c -105 -35 -200 -141 -222 -248 c -43 -206 163 -412 369 -369 c 155 32 275 190 260 339 c -11 105 -90 213 -190 262 c -61 29 -155 36 -217 16 z" stroke-linecap="round"/>
</g>
		<g transform="matrix(0.1333 0 0 -0.1333 597.3578 85.4136)">
<path style="stroke: none; stroke-width: 1; stroke-dasharray: none; stroke-linecap: butt; stroke-dashoffset: 0; stroke-linejoin: miter; stroke-miterlimit: 4; is-custom-font: none; font-file-url: none; fill: rgb(92,233,60); fill-rule: nonzero; opacity: 0.5;" transform=" translate(-10880.2634, -5759.3191)" d="M 10790 6065 c -105 -35 -200 -141 -222 -248 c -43 -206 163 -412 369 -369 c 155 32 275 190 260 339 c -11 105 -90 213 -190 262 c -61 29 -155 36 -217 16 z" stroke-linecap="round"/>
</g>
		<g transform="matrix(0.1333 0 0 -0.1333 768.0245 85.4136)">
<path style="stroke: none; stroke-width: 1; stroke-dasharray: none; stroke-linecap: butt; stroke-dashoffset: 0; stroke-linejoin: miter; stroke-miterlimit: 4; is-custom-font: none; font-file-url: none; fill: rgb(92,233,60); fill-rule: nonzero; opacity: 0.5;" transform=" translate(-12160.2634, -5759.3191)" d="M 12070 6065 c -105 -35 -200 -141 -222 -248 c -43 -206 163 -412 369 -369 c 155 32 275 190 260 339 c -11 105 -90 213 -190 262 c -61 29 -155 36 -217 16 z" stroke-linecap="round"/>
</g>
		<g transform="matrix(0.1333 0 0 -0.1333 -767.9755 256.0802)">
<path style="stroke: none; stroke-width: 1; stroke-dasharray: none; stroke-linecap: butt; stroke-dashoffset: 0; stroke-linejoin: miter; stroke-miterlimit: 4; is-custom-font: none; font-file-url: none; fill: rgb(92,233,60); fill-rule: nonzero; opacity: 0.5;" transform=" translate(-640.2634, -4479.3191)" d="M 550 4785 c -105 -35 -200 -141 -222 -248 c -43 -206 163 -412 369 -369 c 155 32 275 190 260 339 c -11 105 -90 213 -190 262 c -61 29 -155 36 -217 16 z" stroke-linecap="round"/>
</g>
		<g transform="matrix(0.1333 0 0 -0.1333 -597.3089 256.0802)">
<path style="stroke: none; stroke-width: 1; stroke-dasharray: none; stroke-linecap: butt; stroke-dashoffset: 0; stroke-linejoin: miter; stroke-miterlimit: 4; is-custom-font: none; font-file-url: none; fill: rgb(92,233,60); fill-rule: nonzero; opacity: 0.5;" transform=" translate(-1920.2634, -4479.3191)" d="M 1830 4785 c -105 -35 -200 -141 -222 -248 c -43 -206 163 -412 369 -369 c 155 32 275 190 260 339 c -11 105 -90 213 -190 262 c -61 29 -155 36 -217 16 z" stroke-linecap="round"/>
</g>
		<g transform="matrix(0.1333 0 0 -0.1333 -426.7267 255.9948)">
<path style="stroke: none; stroke-width: 1; stroke-dasharray: none; stroke-linecap: butt; stroke-dashoffset: 0; stroke-linejoin: miter; stroke-miterlimit: 4; is-custom-font: none; font-file-url: none; fill: rgb(92,233,60); fill-rule: nonzero; opacity: 0.5;" transform=" translate(-3199.6289, -4479.9592)" d="M 3110 4785 c -105 -35 -200 -141 -222 -248 c -25 -117 32 -244 142 -319 c 107 -74 229 -75 337 -3 c 177 118 201 338 53 485 c -85 86 -207 119 -310 85 z" stroke-linecap="round"/>
</g>
		<g transform="matrix(0.1333 0 0 -0.1333 -256.06 255.9948)">
<path style="stroke: none; stroke-width: 1; stroke-dasharray: none; stroke-linecap: butt; stroke-dashoffset: 0; stroke-linejoin: miter; stroke-miterlimit: 4; is-custom-font: none; font-file-url: none; fill: rgb(92,233,60); fill-rule: nonzero; opacity: 0.5;" transform=" translate(-4479.6289, -4479.9592)" d="M 4390 4785 c -105 -35 -200 -141 -222 -248 c -25 -117 32 -244 142 -319 c 107 -74 229 -75 337 -3 c 177 118 201 338 53 485 c -85 86 -207 119 -310 85 z" stroke-linecap="round"/>
</g>
		<g transform="matrix(0.1333 0 0 -0.1333 -85.2893 256.0841)">
<path style="stroke: none; stroke-width: 1; stroke-dasharray: none; stroke-linecap: butt; stroke-dashoffset: 0; stroke-linejoin: miter; stroke-miterlimit: 4; is-custom-font: none; font-file-url: none; fill: rgb(92,233,60); fill-rule: nonzero; opacity: 0.5;" transform=" translate(-5760.4097, -4479.2893)" d="M 5670 4785 c -151 -50 -253 -216 -222 -362 c 25 -119 136 -230 255 -255 c 193 -41 394 142 374 339 c -11 105 -90 213 -190 262 c -61 29 -155 36 -217 16 z" stroke-linecap="round"/>
</g>
		<g transform="matrix(0.1333 0 0 -0.1333 85.3773 256.0841)">
<path style="stroke: none; stroke-width: 1; stroke-dasharray: none; stroke-linecap: butt; stroke-dashoffset: 0; stroke-linejoin: miter; stroke-miterlimit: 4; is-custom-font: none; font-file-url: none; fill: rgb(92,233,60); fill-rule: nonzero; opacity: 0.5;" transform=" translate(-7040.4097, -4479.2893)" d="M 6950 4785 c -151 -50 -253 -216 -222 -362 c 25 -119 136 -230 255 -255 c 193 -41 394 142 374 339 c -11 105 -90 213 -190 262 c -61 29 -155 36 -217 16 z" stroke-linecap="round"/>
</g>
		<g transform="matrix(0.1333 0 0 -0.1333 256.044 256.0841)">
<path style="stroke: none; stroke-width: 1; stroke-dasharray: none; stroke-linecap: butt; stroke-dashoffset: 0; stroke-linejoin: miter; stroke-miterlimit: 4; is-custom-font: none; font-file-url: none; fill: rgb(92,233,60); fill-rule: nonzero; opacity: 0.5;" transform=" translate(-8320.4097, -4479.2893)" d="M 8230 4785 c -151 -50 -253 -216 -222 -362 c 25 -119 136 -230 255 -255 c 193 -41 394 142 374 339 c -11 105 -90 213 -190 262 c -61 29 -155 36 -217 16 z" stroke-linecap="round"/>
</g>
		<g transform="matrix(0.1333 0 0 -0.1333 426.7107 256.0841)">
<path style="stroke: none; stroke-width: 1; stroke-dasharray: none; stroke-linecap: butt; stroke-dashoffset: 0; stroke-linejoin: miter; stroke-miterlimit: 4; is-custom-font: none; font-file-url: none; fill: rgb(92,233,60); fill-rule: nonzero; opacity: 0.5;" transform=" translate(-9600.4097, -4479.2893)" d="M 9510 4785 c -151 -50 -253 -216 -222 -362 c 25 -119 136 -230 255 -255 c 193 -41 394 142 374 339 c -11 105 -90 213 -190 262 c -61 29 -155 36 -217 16 z" stroke-linecap="round"/>
</g>
		<g transform="matrix(0.1333 0 0 -0.1333 597.3578 256.0802)">
<path style="stroke: none; stroke-width: 1; stroke-dasharray: none; stroke-linecap: butt; stroke-dashoffset: 0; stroke-linejoin: miter; stroke-miterlimit: 4; is-custom-font: none; font-file-url: none; fill: rgb(92,233,60); fill-rule: nonzero; opacity: 0.5;" transform=" translate(-10880.2634, -4479.3191)" d="M 10790 4785 c -105 -35 -200 -141 -222 -248 c -43 -206 163 -412 369 -369 c 155 32 275 190 260 339 c -11 105 -90 213 -190 262 c -61 29 -155 36 -217 16 z" stroke-linecap="round"/>
</g>
		<g transform="matrix(0.1333 0 0 -0.1333 768.0245 256.0802)">
<path style="stroke: none; stroke-width: 1; stroke-dasharray: none; stroke-linecap: butt; stroke-dashoffset: 0; stroke-linejoin: miter; stroke-miterlimit: 4; is-custom-font: none; font-file-url: none; fill: rgb(92,233,60); fill-rule: nonzero; opacity: 0.5;" transform=" translate(-12160.2634, -4479.3191)" d="M 12070 4785 c -105 -35 -200 -141 -222 -248 c -43 -206 163 -412 369 -369 c 155 32 275 190 260 339 c -11 105 -90 213 -190 262 c -61 29 -155 36 -217 16 z" stroke-linecap="round"/>
</g>
		<g transform="matrix(0.1333 0 0 -0.1333 -767.9755 426.7469)">
<path style="stroke: none; stroke-width: 1; stroke-dasharray: none; stroke-linecap: butt; stroke-dashoffset: 0; stroke-linejoin: miter; stroke-miterlimit: 4; is-custom-font: none; font-file-url: none; fill: rgb(92,233,60); fill-rule: nonzero; opacity: 0.5;" transform=" translate(-640.2634, -3199.3191)" d="M 550 3505 c -105 -35 -200 -141 -222 -248 c -43 -206 163 -412 369 -369 c 155 32 275 190 260 339 c -11 105 -90 213 -190 262 c -61 29 -155 36 -217 16 z" stroke-linecap="round"/>
</g>
		<g transform="matrix(0.1333 0 0 -0.1333 -597.3089 426.7469)">
<path style="stroke: none; stroke-width: 1; stroke-dasharray: none; stroke-linecap: butt; stroke-dashoffset: 0; stroke-linejoin: miter; stroke-miterlimit: 4; is-custom-font: none; font-file-url: none; fill: rgb(92,233,60); fill-rule: nonzero; opacity: 0.5;" transform=" translate(-1920.2634, -3199.3191)" d="M 1830 3505 c -105 -35 -200 -141 -222 -248 c -43 -206 163 -412 369 -369 c 155 32 275 190 260 339 c -11 105 -90 213 -190 262 c -61 29 -155 36 -217 16 z" stroke-linecap="round"/>
</g>
		<g transform="matrix(0.1333 0 0 -0.1333 -426.7267 426.6615)">
<path style="stroke: none; stroke-width: 1; stroke-dasharray: none; stroke-linecap: butt; stroke-dashoffset: 0; stroke-linejoin: miter; stroke-miterlimit: 4; is-custom-font: none; font-file-url: none; fill: rgb(92,233,60); fill-rule: nonzero; opacity: 0.5;" transform=" translate(-3199.6289, -3199.9592)" d="M 3110 3505 c -105 -35 -200 -141 -222 -248 c -25 -117 32 -244 142 -319 c 107 -74 229 -75 337 -3 c 177 118 201 338 53 485 c -85 86 -207 119 -310 85 z" stroke-linecap="round"/>
</g>
		<g transform="matrix(0.1333 0 0 -0.1333 -256.06 426.6615)">
<path style="stroke: none; stroke-width: 1; stroke-dasharray: none; stroke-linecap: butt; stroke-dashoffset: 0; stroke-linejoin: miter; stroke-miterlimit: 4; is-custom-font: none; font-file-url: none; fill: rgb(92,233,60); fill-rule: nonzero; opacity: 0.5;" transform=" translate(-4479.6289, -3199.9592)" d="M 4390 3505 c -105 -35 -200 -141 -222 -248 c -25 -117 32 -244 142 -319 c 107 -74 229 -75 337 -3 c 177 118 201 338 53 485 c -85 86 -207 119 -310 85 z" stroke-linecap="round"/>
</g>
		<g transform="matrix(0.1333 0 0 -0.1333 -85.2893 426.7508)">
<path style="stroke: none; stroke-width: 1; stroke-dasharray: none; stroke-linecap: butt; stroke-dashoffset: 0; stroke-linejoin: miter; stroke-miterlimit: 4; is-custom-font: none; font-file-url: none; fill: rgb(92,233,60); fill-rule: nonzero; opacity: 0.5;" transform=" translate(-5760.4097, -3199.2893)" d="M 5670 3505 c -151 -50 -253 -216 -222 -362 c 25 -119 136 -230 255 -255 c 193 -41 394 142 374 339 c -11 105 -90 213 -190 262 c -61 29 -155 36 -217 16 z" stroke-linecap="round"/>
</g>
		<g transform="matrix(0.1333 0 0 -0.1333 85.3773 426.7508)">
<path style="stroke: none; stroke-width: 1; stroke-dasharray: none; stroke-linecap: butt; stroke-dashoffset: 0; stroke-linejoin: miter; stroke-miterlimit: 4; is-custom-font: none; font-file-url: none; fill: rgb(92,233,60); fill-rule: nonzero; opacity: 0.5;" transform=" translate(-7040.4097, -3199.2893)" d="M 6950 3505 c -151 -50 -253 -216 -222 -362 c 25 -119 136 -230 255 -255 c 193 -41 394 142 374 339 c -11 105 -90 213 -190 262 c -61 29 -155 36 -217 16 z" stroke-linecap="round"/>
</g>
		<g transform="matrix(0.1333 0 0 -0.1333 256.044 426.7508)">
<path style="stroke: none; stroke-width: 1; stroke-dasharray: none; stroke-linecap: butt; stroke-dashoffset: 0; stroke-linejoin: miter; stroke-miterlimit: 4; is-custom-font: none; font-file-url: none; fill: rgb(92,233,60); fill-rule: nonzero; opacity: 0.5;" transform=" translate(-8320.4097, -3199.2893)" d="M 8230 3505 c -151 -50 -253 -216 -222 -362 c 25 -119 136 -230 255 -255 c 193 -41 394 142 374 339 c -11 105 -90 213 -190 262 c -61 29 -155 36 -217 16 z" stroke-linecap="round"/>
</g>
		<g transform="matrix(0.1333 0 0 -0.1333 426.7107 426.7508)">
<path style="stroke: none; stroke-width: 1; stroke-dasharray: none; stroke-linecap: butt; stroke-dashoffset: 0; stroke-linejoin: miter; stroke-miterlimit: 4; is-custom-font: none; font-file-url: none; fill: rgb(92,233,60); fill-rule: nonzero; opacity: 0.5;" transform=" translate(-9600.4097, -3199.2893)" d="M 9510 3505 c -151 -50 -253 -216 -222 -362 c 25 -119 136 -230 255 -255 c 193 -41 394 142 374 339 c -11 105 -90 213 -190 262 c -61 29 -155 36 -217 16 z" stroke-linecap="round"/>
</g>
		<g transform="matrix(0.1333 0 0 -0.1333 597.3578 426.7469)">
<path style="stroke: none; stroke-width: 1; stroke-dasharray: none; stroke-linecap: butt; stroke-dashoffset: 0; stroke-linejoin: miter; stroke-miterlimit: 4; is-custom-font: none; font-file-url: none; fill: rgb(92,233,60); fill-rule: nonzero; opacity: 0.5;" transform=" translate(-10880.2634, -3199.3191)" d="M 10790 3505 c -105 -35 -200 -141 -222 -248 c -43 -206 163 -412 369 -369 c 155 32 275 190 260 339 c -11 105 -90 213 -190 262 c -61 29 -155 36 -217 16 z" stroke-linecap="round"/>
</g>
		<g transform="matrix(0.1333 0 0 -0.1333 768.0245 426.7469)">
<path style="stroke: none; stroke-width: 1; stroke-dasharray: none; stroke-linecap: butt; stroke-dashoffset: 0; stroke-linejoin: miter; stroke-miterlimit: 4; is-custom-font: none; font-file-url: none; fill: rgb(92,233,60); fill-rule: nonzero; opacity: 0.5;" transform=" translate(-12160.2634, -3199.3191)" d="M 12070 3505 c -105 -35 -200 -141 -222 -248 c -43 -206 163 -412 369 -369 c 155 32 275 190 260 339 c -11 105 -90 213 -190 262 c -61 29 -155 36 -217 16 z" stroke-linecap="round"/>
</g>
		<g transform="matrix(0.1333 0 0 -0.1333 -767.9755 597.4136)">
<path style="stroke: none; stroke-width: 1; stroke-dasharray: none; stroke-linecap: butt; stroke-dashoffset: 0; stroke-linejoin: miter; stroke-miterlimit: 4; is-custom-font: none; font-file-url: none; fill: rgb(92,233,60); fill-rule: nonzero; opacity: 0.5;" transform=" translate(-640.2634, -1919.3191)" d="M 550 2225 c -105 -35 -200 -141 -222 -248 c -43 -206 163 -412 369 -369 c 155 32 275 190 260 339 c -11 105 -90 213 -190 262 c -61 29 -155 36 -217 16 z" stroke-linecap="round"/>
</g>
		<g transform="matrix(0.1333 0 0 -0.1333 -597.3089 597.4136)">
<path style="stroke: none; stroke-width: 1; stroke-dasharray: none; stroke-linecap: butt; stroke-dashoffset: 0; stroke-linejoin: miter; stroke-miterlimit: 4; is-custom-font: none; font-file-url: none; fill: rgb(92,233,60); fill-rule: nonzero; opacity: 0.5;" transform=" translate(-1920.2634, -1919.3191)" d="M 1830 2225 c -105 -35 -200 -141 -222 -248 c -43 -206 163 -412 369 -369 c 155 32 275 190 260 339 c -11 105 -90 213 -190 262 c -61 29 -155 36 -217 16 z" stroke-linecap="round"/>
</g>
		<g transform="matrix(0.1333 0 0 -0.1333 -426.7267 597.3282)">
<path style="stroke: none; stroke-width: 1; stroke-dasharray: none; stroke-linecap: butt; stroke-dashoffset: 0; stroke-linejoin: miter; stroke-miterlimit: 4; is-custom-font: none; font-file-url: none; fill: rgb(92,233,60); fill-rule: nonzero; opacity: 0.5;" transform=" translate(-3199.6289, -1919.9592)" d="M 3110 2225 c -105 -35 -200 -141 -222 -248 c -25 -117 32 -244 142 -319 c 107 -74 229 -75 337 -3 c 177 118 201 338 53 485 c -85 86 -207 119 -310 85 z" stroke-linecap="round"/>
</g>
		<g transform="matrix(0.1333 0 0 -0.1333 -256.06 597.3282)">
<path style="stroke: none; stroke-width: 1; stroke-dasharray: none; stroke-linecap: butt; stroke-dashoffset: 0; stroke-linejoin: miter; stroke-miterlimit: 4; is-custom-font: none; font-file-url: none; fill: rgb(92,233,60); fill-rule: nonzero; opacity: 0.5;" transform=" translate(-4479.6289, -1919.9592)" d="M 4390 2225 c -105 -35 -200 -141 -222 -248 c -25 -117 32 -244 142 -319 c 107 -74 229 -75 337 -3 c 177 118 201 338 53 485 c -85 86 -207 119 -310 85 z" stroke-linecap="round"/>
</g>
		<g transform="matrix(0.1333 0 0 -0.1333 -85.3089 597.4136)">
<path style="stroke: none; stroke-width: 1; stroke-dasharray: none; stroke-linecap: butt; stroke-dashoffset: 0; stroke-linejoin: miter; stroke-miterlimit: 4; is-custom-font: none; font-file-url: none; fill: rgb(92,233,60); fill-rule: nonzero; opacity: 0.5;" transform=" translate(-5760.2634, -1919.3191)" d="M 5670 2225 c -105 -35 -200 -141 -222 -248 c -43 -206 163 -412 369 -369 c 155 32 275 190 260 339 c -11 105 -90 213 -190 262 c -61 29 -155 36 -217 16 z" stroke-linecap="round"/>
</g>
		<g transform="matrix(0.1333 0 0 -0.1333 85.3578 597.4136)">
<path style="stroke: none; stroke-width: 1; stroke-dasharray: none; stroke-linecap: butt; stroke-dashoffset: 0; stroke-linejoin: miter; stroke-miterlimit: 4; is-custom-font: none; font-file-url: none; fill: rgb(92,233,60); fill-rule: nonzero; opacity: 0.5;" transform=" translate(-7040.2634, -1919.3191)" d="M 6950 2225 c -105 -35 -200 -141 -222 -248 c -43 -206 163 -412 369 -369 c 155 32 275 190 260 339 c -11 105 -90 213 -190 262 c -61 29 -155 36 -217 16 z" stroke-linecap="round"/>
</g>
		<g transform="matrix(0.1333 0 0 -0.1333 256.0245 597.4136)">
<path style="stroke: none; stroke-width: 1; stroke-dasharray: none; stroke-linecap: butt; stroke-dashoffset: 0; stroke-linejoin: miter; stroke-miterlimit: 4; is-custom-font: none; font-file-url: none; fill: rgb(92,233,60); fill-rule: nonzero; opacity: 0.5;" transform=" translate(-8320.2634, -1919.3191)" d="M 8230 2225 c -105 -35 -200 -141 -222 -248 c -43 -206 163 -412 369 -369 c 155 32 275 190 260 339 c -11 105 -90 213 -190 262 c -61 29 -155 36 -217 16 z" stroke-linecap="round"/>
</g>
		<g transform="matrix(0.1333 0 0 -0.1333 426.6911 597.4136)">
<path style="stroke: none; stroke-width: 1; stroke-dasharray: none; stroke-linecap: butt; stroke-dashoffset: 0; stroke-linejoin: miter; stroke-miterlimit: 4; is-custom-font: none; font-file-url: none; fill: rgb(92,233,60); fill-rule: nonzero; opacity: 0.5;" transform=" translate(-9600.2634, -1919.3191)" d="M 9510 2225 c -105 -35 -200 -141 -222 -248 c -43 -206 163 -412 369 -369 c 155 32 275 190 260 339 c -11 105 -90 213 -190 262 c -61 29 -155 36 -217 16 z" stroke-linecap="round"/>
</g>
		<g transform="matrix(0.1333 0 0 -0.1333 597.3578 597.4136)">
<path style="stroke: none; stroke-width: 1; stroke-dasharray: none; stroke-linecap: butt; stroke-dashoffset: 0; stroke-linejoin: miter; stroke-miterlimit: 4; is-custom-font: none; font-file-url: none; fill: rgb(92,233,60); fill-rule: nonzero; opacity: 0.5;" transform=" translate(-10880.2634, -1919.3191)" d="M 10790 2225 c -105 -35 -200 -141 -222 -248 c -43 -206 163 -412 369 -369 c 155 32 275 190 260 339 c -11 105 -90 213 -190 262 c -61 29 -155 36 -217 16 z" stroke-linecap="round"/>
</g>
		<g transform="matrix(0.1333 0 0 -0.1333 768.0245 597.4136)">
<path style="stroke: none; stroke-width: 1; stroke-dasharray: none; stroke-linecap: butt; stroke-dashoffset: 0; stroke-linejoin: miter; stroke-miterlimit: 4; is-custom-font: none; font-file-url: none; fill: rgb(92,233,60); fill-rule: nonzero; opacity: 0.5;" transform=" translate(-12160.2634, -1919.3191)" d="M 12070 2225 c -105 -35 -200 -141 -222 -248 c -43 -206 163 -412 369 -369 c 155 32 275 190 260 339 c -11 105 -90 213 -190 262 c -61 29 -155 36 -217 16 z" stroke-linecap="round"/>
</g>
		<g transform="matrix(0.1333 0 0 -0.1333 -767.9755 768.0802)">
<path style="stroke: none; stroke-width: 1; stroke-dasharray: none; stroke-linecap: butt; stroke-dashoffset: 0; stroke-linejoin: miter; stroke-miterlimit: 4; is-custom-font: none; font-file-url: none; fill: rgb(92,233,60); fill-rule: nonzero; opacity: 0.5;" transform=" translate(-640.2634, -639.3191)" d="M 550 945 c -105 -35 -200 -141 -222 -248 c -43 -206 163 -412 369 -369 c 155 32 275 190 260 339 c -11 105 -90 213 -190 262 c -61 29 -155 36 -217 16 z" stroke-linecap="round"/>
</g>
		<g transform="matrix(0.1333 0 0 -0.1333 -597.3089 768.0802)">
<path style="stroke: none; stroke-width: 1; stroke-dasharray: none; stroke-linecap: butt; stroke-dashoffset: 0; stroke-linejoin: miter; stroke-miterlimit: 4; is-custom-font: none; font-file-url: none; fill: rgb(92,233,60); fill-rule: nonzero; opacity: 0.5;" transform=" translate(-1920.2634, -639.3191)" d="M 1830 945 c -105 -35 -200 -141 -222 -248 c -43 -206 163 -412 369 -369 c 155 32 275 190 260 339 c -11 105 -90 213 -190 262 c -61 29 -155 36 -217 16 z" stroke-linecap="round"/>
</g>
		<g transform="matrix(0.1333 0 0 -0.1333 -426.6422 768.0802)">
<path style="stroke: none; stroke-width: 1; stroke-dasharray: none; stroke-linecap: butt; stroke-dashoffset: 0; stroke-linejoin: miter; stroke-miterlimit: 4; is-custom-font: none; font-file-url: none; fill: rgb(92,233,60); fill-rule: nonzero; opacity: 0.5;" transform=" translate(-3200.2634, -639.3191)" d="M 3110 945 c -105 -35 -200 -141 -222 -248 c -43 -206 163 -412 369 -369 c 155 32 275 190 260 339 c -11 105 -90 213 -190 262 c -61 29 -155 36 -217 16 z" stroke-linecap="round"/>
</g>
		<g transform="matrix(0.1333 0 0 -0.1333 -255.9755 768.0802)">
<path style="stroke: none; stroke-width: 1; stroke-dasharray: none; stroke-linecap: butt; stroke-dashoffset: 0; stroke-linejoin: miter; stroke-miterlimit: 4; is-custom-font: none; font-file-url: none; fill: rgb(92,233,60); fill-rule: nonzero; opacity: 0.5;" transform=" translate(-4480.2634, -639.3191)" d="M 4390 945 c -105 -35 -200 -141 -222 -248 c -43 -206 163 -412 369 -369 c 155 32 275 190 260 339 c -11 105 -90 213 -190 262 c -61 29 -155 36 -217 16 z" stroke-linecap="round"/>
</g>
		<g transform="matrix(0.1333 0 0 -0.1333 -85.3089 768.0802)">
<path style="stroke: none; stroke-width: 1; stroke-dasharray: none; stroke-linecap: butt; stroke-dashoffset: 0; stroke-linejoin: miter; stroke-miterlimit: 4; is-custom-font: none; font-file-url: none; fill: rgb(92,233,60); fill-rule: nonzero; opacity: 0.5;" transform=" translate(-5760.2634, -639.3191)" d="M 5670 945 c -105 -35 -200 -141 -222 -248 c -43 -206 163 -412 369 -369 c 155 32 275 190 260 339 c -11 105 -90 213 -190 262 c -61 29 -155 36 -217 16 z" stroke-linecap="round"/>
</g>
		<g transform="matrix(0.1333 0 0 -0.1333 85.3578 768.0802)">
<path style="stroke: none; stroke-width: 1; stroke-dasharray: none; stroke-linecap: butt; stroke-dashoffset: 0; stroke-linejoin: miter; stroke-miterlimit: 4; is-custom-font: none; font-file-url: none; fill: rgb(92,233,60); fill-rule: nonzero; opacity: 0.5;" transform=" translate(-7040.2634, -639.3191)" d="M 6950 945 c -105 -35 -200 -141 -222 -248 c -43 -206 163 -412 369 -369 c 155 32 275 190 260 339 c -11 105 -90 213 -190 262 c -61 29 -155 36 -217 16 z" stroke-linecap="round"/>
</g>
		<g transform="matrix(0.1333 0 0 -0.1333 256.0245 768.0802)">
<path style="stroke: none; stroke-width: 1; stroke-dasharray: none; stroke-linecap: butt; stroke-dashoffset: 0; stroke-linejoin: miter; stroke-miterlimit: 4; is-custom-font: none; font-file-url: none; fill: rgb(92,233,60); fill-rule: nonzero; opacity: 0.5;" transform=" translate(-8320.2634, -639.3191)" d="M 8230 945 c -105 -35 -200 -141 -222 -248 c -43 -206 163 -412 369 -369 c 155 32 275 190 260 339 c -11 105 -90 213 -190 262 c -61 29 -155 36 -217 16 z" stroke-linecap="round"/>
</g>
		<g transform="matrix(0.1333 0 0 -0.1333 426.6911 768.0802)">
<path style="stroke: none; stroke-width: 1; stroke-dasharray: none; stroke-linecap: butt; stroke-dashoffset: 0; stroke-linejoin: miter; stroke-miterlimit: 4; is-custom-font: none; font-file-url: none; fill: rgb(92,233,60); fill-rule: nonzero; opacity: 0.5;" transform=" translate(-9600.2634, -639.3191)" d="M 9510 945 c -105 -35 -200 -141 -222 -248 c -43 -206 163 -412 369 -369 c 155 32 275 190 260 339 c -11 105 -90 213 -190 262 c -61 29 -155 36 -217 16 z" stroke-linecap="round"/>
</g>
		<g transform="matrix(0.1333 0 0 -0.1333 597.3578 768.0802)">
<path style="stroke: none; stroke-width: 1; stroke-dasharray: none; stroke-linecap: butt; stroke-dashoffset: 0; stroke-linejoin: miter; stroke-miterlimit: 4; is-custom-font: none; font-file-url: none; fill: rgb(92,233,60); fill-rule: nonzero; opacity: 0.5;" transform=" translate(-10880.2634, -639.3191)" d="M 10790 945 c -105 -35 -200 -141 -222 -248 c -43 -206 163 -412 369 -369 c 155 32 275 190 260 339 c -11 105 -90 213 -190 262 c -61 29 -155 36 -217 16 z" stroke-linecap="round"/>
</g>
		<g transform="matrix(0.1333 0 0 -0.1333 768.0245 768.0802)">
<path style="stroke: none; stroke-width: 1; stroke-dasharray: none; stroke-linecap: butt; stroke-dashoffset: 0; stroke-linejoin: miter; stroke-miterlimit: 4; is-custom-font: none; font-file-url: none; fill: rgb(92,233,60); fill-rule: nonzero; opacity: 0.5;" transform=" translate(-12160.2634, -639.3191)" d="M 12070 945 c -105 -35 -200 -141 -222 -248 c -43 -206 163 -412 369 -369 c 155 32 275 190 260 339 c -11 105 -90 213 -190 262 c -61 29 -155 36 -217 16 z" stroke-linecap="round"/>
</g>
</g>
</g>
</svg>